<?xml version="1.0" encoding="UTF-8" standalone="no"?><!DOCTYPE svg PUBLIC "-//W3C//DTD SVG 1.1//EN" "http://www.w3.org/Graphics/SVG/1.1/DTD/svg11.dtd"><svg width="100%" height="100%" viewBox="0 0 512 512" version="1.1" xmlns="http://www.w3.org/2000/svg" xmlns:xlink="http://www.w3.org/1999/xlink" xml:space="preserve" xmlns:serif="http://www.serif.com/" style="fill-rule:evenodd;clip-rule:evenodd;stroke-linejoin:round;stroke-miterlimit:2;"><g><g><path d="M199.71,407.847c275.415,-0 275.883,-0.451 283.636,3.316c24.424,11.869 19.357,54.136 -10.282,57.224c-3.461,0.361 -384.543,0.219 -389.336,0.061c-24.028,-0.794 -67.168,-20.655 -70.473,-72.541c-0.246,-3.866 -0.09,-322.645 -0.084,-322.867c0.996,-34.481 47.084,-39.956 58.829,-10.8c4.775,11.853 -0.24,321.462 2.747,333.933c3.314,13.838 8.935,11.675 124.964,11.675Z" style="fill:#007bfe;"/><path d="M437.127,104.241c3.589,0.335 31.948,2.981 31.396,32.327c-0.28,14.901 -2.242,15.621 -125.884,137.335c-32.554,32.046 -52.609,-1.967 -96.497,-45.797c-5.066,-5.059 -6.428,-3.886 -11.528,1.249c-68.456,68.929 -68.188,68.968 -74.169,74.913c-27.436,27.273 -48.788,2.692 -50.741,-0.105c-18.168,-26.025 8.889,-45.674 55.233,-92.018c55.064,-55.064 71.417,-80.901 103.722,-47.982c41.518,42.308 45.957,51.304 54.227,43.058c92.077,-91.809 89.346,-97.567 114.241,-102.98Z" style="fill:#007bfe;"/></g></g></svg>